PathFileType	4	(X/Y/Z)	D:\MotionData\Pi-Spi Study\20230118_AMCsubject1\Trimmed_right_horiz_abd01_rotated.trc
DataRate	CameraRate	NumFrames	NumMarkers	Units	OrigDataRate	OrigDataStartFrame	OrigNumFrames
200.00	200.00	       6	35	mm	200.00	126	       200
Frame#	Time	C7			Sternum			r_AMC1			r_AMC2			r_AMC3			l_AMC1			l_AMC2			l_AMC3			PX			T8			r_humerous			r_elbow_medial			r_elbow_lateral			r_forearm			r_wrist_radius			r_wrist_ulna			r_MCP_1			r_MCP_3			l_humerous			l_elbow_medial			l_elbow_lateral			l_forearm			l_wrist_radius			l_wrist_ulna			l_MCP_1			l_MCP_3			r_ASIS			r_PSIS			l_ASIS			l_PSIS			r_IC			l_IC			TS			AI			AA			
		X1	Y1	Z1	X2	Y2	Z2	X3	Y3	Z3	X4	Y4	Z4	X5	Y5	Z5	X6	Y6	Z6	X7	Y7	Z7	X8	Y8	Z8	X9	Y9	Z9	X10	Y10	Z10	X11	Y11	Z11	X12	Y12	Z12	X13	Y13	Z13	X14	Y14	Z14	X15	Y15	Z15	X16	Y16	Z16	X17	Y17	Z17	X18	Y18	Z18	X19	Y19	Z19	X20	Y20	Z20	X21	Y21	Z21	X22	Y22	Z22	X23	Y23	Z23	X24	Y24	Z24	X25	Y25	Z25	X26	Y26	Z26	X27	Y27	Z27	X28	Y28	Z28	X29	Y29	Z29	X30	Y30	Z30	X31	Y31	Z31	X32	Y32	Z32	X33	Y33	Z33	X34	Y34	Z34	X35	Y35	Z35	

126	0.625	215.5535	1376.9767	-262.2543	342.8827	1309.3334	-233.3265	173.8176	1363.8381	-136.2971	200.5259	1387.3517	-101.3097	225.5387	1407.0736	-133.4112	241.7046	1314.2102	-409.3866	281.7437	1301.3262	-439.6688	306.69	1336.132	-410.6294	378.9772	1113.2997	-200.2334	156.3507	1199.8324	-252.7448	236.216	1367.4049	47.247	201.9093	1281.3832	168.198	159.0261	1323.5051	159.1746	114.9437	1340.282	317.4869	112.3682	1364.6534	389.7363	108.9398	1312.9736	386.7691	94.7013	1369.7329	474.3027	97.6814	1322.1858	473.5779	345.2555	1106.0612	-417.819	263.6498	978.8715	-407.9451	285.6223	975.6804	-459.4572	344.9184	827.741	-473.7819	387.7908	758.2082	-446.6089	349.1775	751.3501	-467.4129	403.9907	681.369	-454.416	360.0591	676.7311	-471.512	343.3494	906.0533	-63.3422	159.226	929.265	-155.6388	357.2556	889.777	-324.4643	165.3585	922.9789	-259.0824	260.0373	971.8864	-41.9602	270.4615	937.1734	-367.2797	114.164	1331.6626	-207.7459	98.8993	1235.9109	-176.0403	130.3011	1367.5493	-68.7428
127	0.63	215.5621	1376.9836	-262.2709	342.9074	1309.3416	-233.3268	173.678	1364.0234	-136.2574	200.5447	1387.3464	-101.3077	225.4855	1407.104	-133.4144	241.7655	1314.1617	-409.3888	281.4432	1301.0898	-439.9602	306.5951	1336.1802	-410.4103	378.9482	1113.28	-200.1968	155.9745	1199.9311	-252.7237	236.2325	1367.3561	47.2402	201.904	1281.3899	168.1945	159.0446	1323.483	159.1846	114.9812	1340.2311	317.4654	112.3886	1364.5901	389.7233	108.9674	1312.9395	386.7681	94.7138	1369.6514	474.2838	97.6964	1322.1252	473.5669	345.27	1105.9896	-417.737	263.6754	978.8824	-407.971	285.6559	975.6659	-459.4442	344.895	827.7807	-473.7466	387.8229	758.2008	-446.5949	349.2365	751.4439	-467.468	404.0176	681.3408	-454.3749	360.0938	676.7029	-471.4756	343.3775	906.0117	-63.4083	159.2289	929.2562	-155.6178	357.2411	889.772	-324.4441	165.359	923.0084	-259.0729	260.0881	971.8311	-41.9741	270.6237	937.0244	-367.2361	114.1647	1331.6472	-207.7421	98.8872	1235.927	-175.9153	130.3071	1367.573	-68.7206
128	0.635	215.5884	1376.9807	-262.285	342.9342	1309.3295	-233.3353	173.6793	1364.006	-136.2355	200.5497	1387.3363	-101.3093	225.514	1407.1184	-133.4208	241.7786	1314.1642	-409.4342	281.5104	1301.0507	-439.9837	306.7391	1336.1029	-410.6791	379.0138	1113.3108	-200.219	155.9966	1199.9381	-252.724	236.2389	1367.3339	47.2163	201.9912	1281.3551	168.1662	159.0276	1323.432	159.1876	114.9746	1340.1986	317.4567	112.3956	1364.5295	389.7235	108.9652	1312.7489	386.7305	94.7246	1369.5736	474.2762	97.6912	1322.0775	473.5729	345.2834	1106.0266	-417.7166	263.7032	978.8675	-407.9461	285.661	975.6676	-459.4262	344.9558	827.7465	-473.7319	387.8468	758.1979	-446.5678	349.2863	751.3694	-467.4213	404.0066	681.3447	-454.3535	360.1177	676.6818	-471.4481	343.3725	906.0089	-63.3937	159.2372	929.2461	-155.6269	357.2528	889.7783	-324.452	165.3822	923.0063	-259.0816	260.1479	971.8106	-41.9857	270.7037	937.0037	-367.286	114.1643	1331.6161	-207.7267	98.8649	1235.874	-175.9316	130.3462	1367.561	-68.7551
129	0.64	215.601	1376.9805	-262.2748	342.9521	1309.3461	-233.3229	173.8526	1363.8289	-136.3203	200.5596	1387.3332	-101.3287	225.5797	1407.0478	-133.4272	241.8004	1314.1632	-409.4528	281.9023	1301.2244	-439.6949	306.7873	1336.0476	-410.6776	379.0185	1113.2859	-200.1858	156.0055	1199.9534	-252.7129	236.1869	1367.4058	47.2156	201.9958	1281.3307	168.1365	159.0709	1323.4486	159.1814	114.9925	1340.1504	317.4525	112.3961	1364.4807	389.7017	108.9669	1312.6998	386.7282	94.719	1369.5158	474.2648	97.7054	1321.9885	473.5729	345.3354	1106.0131	-417.75	263.7185	978.8806	-407.9332	285.6962	975.6522	-459.4261	344.949	827.7378	-473.6921	387.9058	758.1952	-446.5523	349.3663	751.2779	-467.3293	404.0689	681.2946	-454.2948	360.1771	676.6843	-471.4141	343.4225	906.026	-63.3678	159.229	929.2643	-155.6152	357.2634	889.7698	-324.472	165.3924	923.0098	-259.0801	260.1315	971.8458	-41.9577	270.6223	937.0869	-367.2264	114.1721	1331.5839	-207.7329	98.8612	1235.9089	-175.8901	130.3655	1367.5512	-68.7551
130	0.645	215.6271	1376.9849	-262.304	343.0001	1309.334	-233.3391	173.8578	1363.8422	-136.3158	200.5776	1387.3342	-101.3327	225.6033	1407.0664	-133.4428	241.7222	1314.2688	-409.3593	281.9533	1301.2089	-439.7235	306.6333	1336.2455	-410.6025	379.0372	1113.2858	-200.2121	156.009	1199.9506	-252.7144	236.2482	1367.3554	47.2059	202.0143	1281.3154	168.1192	159.0959	1323.4443	159.1578	114.9477	1339.993	317.376	112.4155	1364.4369	389.7027	108.993	1312.7618	386.7278	94.7299	1369.4496	474.276	97.6824	1321.9276	473.5546	345.2601	1106.1038	-417.7052	263.7626	978.8578	-407.9365	285.7214	975.6401	-459.4126	345.0057	827.7108	-473.6612	387.9151	758.1812	-446.5123	349.2773	751.4745	-467.4636	404.1463	681.2129	-454.1957	360.1914	676.6856	-471.3816	343.4044	905.9741	-63.4082	159.2607	929.267	-155.6224	357.2436	889.7646	-324.4584	165.418	923.0165	-259.111	260.1805	971.8144	-41.979	270.6186	937.0322	-367.2078	114.1766	1331.5815	-207.7372	98.8787	1235.882	-175.9226	130.3804	1367.5559	-68.763
131	0.65	215.6299	1376.977	-262.2992	342.9906	1309.3471	-233.3779	173.8935	1363.8591	-136.3188	200.6072	1387.3633	-101.3379	225.6058	1407.0685	-133.4512	241.8195	1314.1553	-409.4415	281.9105	1301.2744	-439.757	306.7364	1336.1389	-410.6605	379.0727	1113.292	-200.24	156.4048	1199.8264	-252.7577	236.2608	1367.32	47.202	202.0005	1281.303	168.1314	159.1524	1323.4447	159.1527	115.0184	1340.0826	317.4469	112.4142	1364.3722	389.6783	108.9601	1312.6191	386.701	94.7276	1369.397	474.2835	97.7143	1321.8712	473.5495	345.3407	1106.047	-417.7346	263.7807	978.8474	-407.9311	285.7229	975.6251	-459.374	345.0409	827.6916	-473.6789	387.9562	758.1899	-446.4726	349.3682	751.3806	-467.3431	404.1334	681.3817	-454.2459	360.2482	676.6558	-471.3381	343.458	906.0047	-63.4093	159.2844	929.2536	-155.6272	357.2606	889.788	-324.4955	165.4122	923.0239	-259.0826	260.1464	971.8604	-41.9642	270.5638	937.1061	-367.2802	114.1701	1331.5652	-207.7145	98.9007	1235.8837	-175.923	130.4153	1367.5391	-68.7494
